<svg width="44" height="34" viewBox="0 0 44 34" fill="none" xmlns="http://www.w3.org/2000/svg">
<path d="M21.8552 7.1251C19.6709 4.65338 16.3038 2.18165 7.95893 2.00027C7.41081 1.98837 6.96381 2.38421 6.96381 2.87168C6.96381 6.48789 6.96381 20.1784 6.96381 24.2273C6.96381 24.7147 7.41085 25.0976 7.95883 25.1135C16.3038 25.356 19.6709 28.6455 21.8552 31.1173M21.8552 7.1251C24.0395 4.65338 27.4065 2.18165 35.7515 2.00027C36.2997 1.98837 36.7466 2.37531 36.7466 2.86278C36.7466 6.9051 36.7466 20.1837 36.7466 24.2261C36.7466 24.7135 36.2997 25.0976 35.7517 25.1135C27.4067 25.356 24.0395 28.6455 21.8552 31.1173M21.8552 7.1251V31.1173M36.2211 5.52029H40.7177C41.2659 5.52029 41.7104 5.91547 41.7104 6.40294V29.4209C41.7104 30.1351 40.7639 30.6096 40.0297 30.3196C38.451 29.6959 35.8164 28.934 32.3668 28.934C26.527 28.934 21.8552 32 21.8552 32C21.8552 32 17.1834 28.934 11.3436 28.934C7.89392 28.934 5.25935 29.6959 3.68069 30.3196C2.94646 30.6096 2 30.1351 2 29.4209V6.40294C2 5.91547 2.44448 5.52029 2.99276 5.52029H7.48939" stroke="#F9C9D2" stroke-width="3" stroke-linejoin="round"/>
</svg>
