<svg width="34" height="34" viewBox="0 0 34 34" fill="none" xmlns="http://www.w3.org/2000/svg">
<path d="M30.9541 8.70104L16.627 22.9492C15.2003 24.3681 10.9653 25.0252 10.0191 24.0843C9.073 23.1434 9.71877 18.9316 11.1455 17.5128L25.4876 3.24962C25.8413 2.86587 26.2694 2.5574 26.7464 2.34278C27.2232 2.12816 27.7389 2.01181 28.2623 2.00085C28.7855 1.9899 29.3058 2.0845 29.7913 2.27898C30.2768 2.47345 30.7177 2.76379 31.0873 3.13239C31.4569 3.501 31.7477 3.94024 31.9418 4.42364C32.136 4.90705 32.2299 5.42456 32.2174 5.94498C32.205 6.46539 32.0865 6.97796 31.8695 7.45163C31.6523 7.9253 31.341 8.35035 30.9541 8.70104Z" stroke="#F9C9D2" stroke-width="3" stroke-linecap="round" stroke-linejoin="round"/>
<path d="M15.5161 5.1167H8.00716C6.41395 5.1167 4.88611 5.7461 3.75954 6.86647C2.63299 7.98684 2 9.50637 2 11.0908V26.0261C2 27.6106 2.63299 29.1301 3.75954 30.2504C4.88611 31.3708 6.41395 32.0002 8.00716 32.0002H24.5268C27.8458 32.0002 29.0322 29.3118 29.0322 26.0261V18.5584" stroke="#F9C9D2" stroke-width="3" stroke-linecap="round" stroke-linejoin="round"/>
</svg>
