<svg width="32" height="32" viewBox="0 0 60 60" fill="none" xmlns="http://www.w3.org/2000/svg">
<g clip-path="url(#clip0_49_110)">
<path d="M35.5775 6.8775L47.915 14C48.89 12.975 50.265 12.34 51.7875 12.34C54.74 12.34 57.1325 14.7325 57.1325 17.685C57.1325 20.1875 55.4125 22.29 53.09 22.87L53.0525 22.8775V37.1275C55.425 37.71 57.1575 39.8175 57.1575 42.33C57.1575 45.285 54.7625 47.68 51.8075 47.68C50.215 47.68 48.7875 46.985 47.8075 45.8825L47.8025 45.8775L35.54 52.9575C35.7125 53.4625 35.8125 54.0425 35.8125 54.645C35.8125 57.6 33.4175 59.995 30.4625 59.995C27.5075 59.995 25.1125 57.6 25.1125 54.645C25.1125 54.105 25.1925 53.5825 25.3425 53.0925L25.3325 53.13L12.98 46.02C12.005 47.0375 10.6325 47.67 9.11499 47.67C6.15999 47.67 3.76499 45.275 3.76499 42.32C3.76499 39.815 5.48749 37.71 7.81249 37.13L7.84999 37.1225V22.875C5.47249 22.2975 3.73499 20.185 3.73499 17.67C3.73499 14.715 6.12999 12.32 9.08499 12.32C10.075 12.32 11.005 12.59 11.8 13.06L11.775 13.0475C12.235 13.3125 12.63 13.625 12.9725 13.9875L12.975 13.99L25.32 6.865C25.18 6.41 25.1 5.8875 25.1 5.345C25.1 2.3925 27.495 -0.00250244 30.4475 -0.00250244C33.4 -0.00250244 35.795 2.3925 35.795 5.345C35.795 5.8925 35.7125 6.42 35.56 6.9175L35.57 6.88L35.5775 6.8775ZM34.29 9.07C34.2425 9.1225 34.1975 9.1675 34.1475 9.2125L34.145 9.215L50.2975 37.19C50.3625 37.1675 50.4375 37.15 50.5025 37.1325V22.865C48.1575 22.27 46.45 20.175 46.45 17.685C46.45 17.2275 46.5075 16.7825 46.615 16.3575L46.6075 16.395C46.6225 16.335 46.6375 16.2725 46.655 16.215L34.29 9.07ZM26.7525 9.2175L26.6025 9.0675L14.2375 16.1975C14.37 16.64 14.4475 17.15 14.4475 17.6775C14.4475 20.1 12.835 22.145 10.6225 22.8L10.585 22.81L10.395 22.8625V37.1325L10.605 37.19L26.7575 9.215L26.7525 9.2175ZM31.9425 10.485C31.495 10.6175 30.9825 10.695 30.4525 10.695C29.9225 10.695 29.41 10.6175 28.925 10.475L28.9625 10.485L12.8125 38.4575C13.5275 39.1475 14.0525 40.03 14.305 41.0225L14.3125 41.06H46.59C46.845 40.0275 47.3725 39.14 48.0875 38.4525L48.09 38.45L31.95 10.485H31.9425ZM34.4075 51.0525L46.7 43.9575C46.6625 43.84 46.6325 43.7225 46.605 43.6025H14.305L14.2525 43.81L26.6 50.94C27.575 49.9325 28.94 49.3075 30.45 49.3075C32.015 49.3075 33.4225 49.9775 34.4025 51.0475L34.4075 51.0525Z" fill="#F9C9D2"/>
</g>
<defs>
<clipPath id="clip0_49_110">
<rect width="60" height="60" fill="white"/>
</clipPath>
</defs>
</svg>
