<svg xmlns="http://www.w3.org/2000/svg" width="38" height="32" fill="none">
  <path d="M33.543 36.602v-3.736a7.37 7.37 0 0 0-2.235-5.278A7.711 7.711 0 0 0 25.91 25.4H10.638a7.723 7.723 0 0 0-5.403 2.188A7.388 7.388 0 0 0 3 32.866v3.736m15.271-18.667c4.22 0 7.639-3.345 7.639-7.466 0-4.126-3.42-7.471-7.639-7.471-4.218 0-7.633 3.345-7.633 7.47 0 4.122 3.415 7.467 7.633 7.467Zm15.277 0H45m-5.729-5.601v11.201" stroke="#D4ADAD" stroke-linecap="round" stroke-linejoin="round" stroke-width="5" transform="scale(.79167 .8)"/>
</svg>