<svg xmlns="http://www.w3.org/2000/svg" width="32" height="32" fill="#D4ADAD">
  <path d="M11.43 1.117H5.613c-3.008 0-4.496 1.488-4.496 4.492v5.836c0 3.067 1.488 4.555 4.496 4.48h5.832c3.067.075 4.555-1.413 4.48-4.495V5.61C16 2.604 14.513 1.116 11.43 1.116Zm.12 11.551c-1.01 0-1.995-.39-2.812-1.074a5.493 5.493 0 0 1-3.246 1.074c-.61 0-1.117-.508-1.117-1.117 0-.61.508-1.117 1.117-1.117 1.52 0 2.785-1.043 3.246-2.473H5.492c-.61 0-1.117-.504-1.117-1.113 0-.614.508-1.118 1.117-1.118h1.922A1.111 1.111 0 0 1 8.516 4.72c.578 0 1.039.445 1.101 1.011H11.535c.61 0 1.117.504 1.117 1.118 0 .609-.492 1.113-1.117 1.113h-.492a5.866 5.866 0 0 1-.79 1.996c.403.297.837.477 1.298.477.61 0 1.117.507 1.117 1.117s-.508 1.117-1.117 1.117ZM11.535 32C5.18 32 0 26.82 0 20.465c0-.61.508-1.117 1.117-1.117.61 0 1.117.507 1.117 1.117 0 4.406 3.067 8.098 7.188 9.062l-.402-.668a1.113 1.113 0 0 1 .386-1.53 1.117 1.117 0 0 1 1.535.386l1.563 2.601c.207.344.207.778.016 1.118-.211.343-.582.566-.985.566ZM30.883 12.652c-.61 0-1.117-.507-1.117-1.117 0-4.406-3.067-8.098-7.188-9.066l.402.672a1.113 1.113 0 0 1-.386 1.53 1.117 1.117 0 0 1-1.535-.386l-1.563-2.601A1.12 1.12 0 0 1 19.48.566c.211-.343.582-.566.985-.566C26.82 0 32 5.18 32 11.535c0 .61-.508 1.117-1.117 1.117ZM23.324 15.777a7.564 7.564 0 0 0 0 15.125 7.564 7.564 0 0 0 7.563-7.562 7.554 7.554 0 0 0-7.563-7.563Zm3.692 11.149a1.12 1.12 0 0 1-1.504-.504l-.254-.508h-3.856l-.25.508c-.195.387-.597.61-1 .61-.164 0-.34-.044-.488-.118a1.136 1.136 0 0 1-.508-1.504l3.184-6.355a1.134 1.134 0 0 1 1-.614c.414 0 .805.239.996.63l3.187 6.35c.266.552.043 1.224-.507 1.505Zm0 0" />
  <path d="M22.52 23.68h1.62l-.816-1.621Zm0 0"/>
</svg>